inDegrees=yes
name=ik_MT_2026-09-08_17h41_01210270-000-000_orientations
DataType=double
version=3
OpenSimVersion=4.5
endheader
time	pelvis_tilt	pelvis_list	pelvis_rotation	pelvis_tx	pelvis_ty	pelvis_tz	hip_flexion_r	hip_adduction_r	hip_rotation_r	knee_angle_r	knee_angle_r_beta	ankle_angle_r	subtalar_angle_r	mtp_angle_r	hip_flexion_l	hip_adduction_l	hip_rotation_l	knee_angle_l	knee_angle_l_beta	ankle_angle_l	subtalar_angle_l	mtp_angle_l	lumbar_extension	lumbar_bending	lumbar_rotation	arm_flex_r	arm_add_r	arm_rot_r	elbow_flex_r	pro_sup_r	wrist_flex_r	wrist_dev_r	arm_flex_l	arm_add_l	arm_rot_l	elbow_flex_l	pro_sup_l	wrist_flex_l	wrist_dev_l
128.075	5.566542684786916	0.8463035191177957	-3149.047096471542	0	0.9399999999999999	0	-4.545291848046205	42.09999445940514	-56.78652173392661	-48.33392346146844	-0.843586104809559	-1.422455375091373	0	0	19.84331361131477	27.86316412115936	79.30170750064713	78.46285205761606	1.369435108910608	17.52505640591531	0	0	-4.682018108382396	16.36713322327816	-89.91220001499092	-2.532301626930964	-19.23577506436945	11.27345364551211	21.24858305752152	45.00000025534048	0	0	7.038084222254061	-0.5591250140308889	-12.50074264174588	6.177073177766562	45.00000025534048	0	0
128.1	4.677706321162725	1.036539675254069	-3150.678366857886	0	0.9399999999999999	0	-6.160133286865791	41.17650986686535	-55.33048162369495	-47.90903328757098	-0.8361703723156769	-1.200874304142062	0	0	18.24447116323695	29.89646616247106	78.82971095417363	77.31409355794594	1.349385490781094	22.44698084095179	0	0	-4.34733681415857	15.09548092130767	-89.91402981768435	-1.458863899206583	-20.74778324888139	10.28875330084868	23.0811530048939	45.00000025534048	0	0	6.418249918872152	-1.17240858591561	-14.41343384076744	1.998185914641975	45.00000025534048	0	0
128.125	3.923885039205955	1.205526483935031	-3152.211673655344	0	0.9399999999999999	0	-7.550263571893169	40.26523350332941	-54.12806572516629	-47.34378972074122	-0.8263050109987811	-1.003241962109052	0	0	17.05188996690709	31.32995788988392	78.230549254937	74.78655889411354	1.305271688938931	26.76948972387363	0	0	-3.701196893405444	14.1315979319636	-89.91645223165395	-0.2088541479277866	-22.54256088734497	9.629710513467407	24.8786006301326	45.00000025534048	0	0	4.809491819204756	-1.371168974374871	-16.16585679167383	0.2655420300524555	45.00000025534048	0	0
128.15	3.340553937061319	0.2541524796944923	-3153.648200663276	0	0.9399999999999999	0	-7.729882871885813	39.53154563118417	-53.00744199743044	-46.74414142771279	-0.8158391739314711	-0.7207316036288478	0	0	17.2501571262049	31.92162609076613	77.54912073833066	70.43432317158432	1.229310845757881	30.0875138473583	0	0	-1.850166242114679	13.53504058979812	-89.91674153052746	1.266210434795474	-24.41341055772666	9.43881970995367	26.74183413050995	45.00000025534048	0	0	2.572153718265754	-1.271970741791356	-17.74061298193843	0.1194254561041271	45.00000025534048	0	0
128.175	3.013595379359091	-0.6140832859676646	-3154.861372610306	0	0.9399999999999999	0	-7.779325523344253	39.12041823936965	-52.15080566109756	-46.08175081325934	-0.8042782767749501	-0.3733654999208681	0	0	17.46906567660472	31.79964731949162	76.6745766594303	64.64166585250025	1.128209903100116	32.1101975488474	0	0	-0.1596607471024241	13.46260824369564	-89.91966338178456	2.894972132048562	-26.32126886018571	9.801330939956888	28.90916804808189	45.00000025534048	0	0	0.5436468110433839	-1.190397120122661	-18.80397728496122	0.08373954778478357	45.00000025534048	0	0
128.2	2.956533284358145	-0.7538041271968491	-3155.903179566147	0	0.9399999999999999	0	-8.453600006735856	38.99019861351631	-51.45801936228122	-45.41136449627223	-0.7925778282832066	0.05416461076490597	0	0	16.73087405169699	31.46837985248461	75.90786560549418	57.94815861940229	1.011386163376502	32.4991787941402	0	0	0.5378639813199302	13.73008788358122	-89.92118784399879	4.628523872027707	-28.09793192162484	11.07091068096626	31.4117509913561	45.00000025534048	0	0	-1.316485020075759	-1.297169054211643	-19.22555190705203	0.06979777647051252	45.00000025534048	0	0
128.225	2.823285302567368	-1.004547003831856	-3157.05298809049	0	0.9399999999999999	0	-9.066938659160712	38.65392481172537	-50.61751699644658	-44.5072059774198	-0.7767972851692765	0.4680176526897084	0	0	16.22296263858236	31.79957483002882	75.3429761314045	51.60267477456513	0.9006365776519841	31.36640978658912	0	0	1.280373706219108	14.01221481354744	-89.92359235655186	6.648814333093803	-30.18988026111558	13.33999661520816	34.1979176852319	45.00000025534048	0	0	-3.04259180040716	-1.281906275841808	-19.39271030006268	0.06570623136633723	45.00000025534048	0	0
128.25	2.69465744606819	-1.096037391870489	-3158.17140052759	0	0.9399999999999999	0	-10.06396380897753	38.49277738870739	-49.45157738009004	-43.7881332723292	-0.7642470989042233	1.044902516881384	0	0	15.76308900385773	32.52293970485998	75.43809634417482	45.51059269634902	0.7943096870853743	28.65907305670996	0	0	1.740461428558194	14.16678291433058	-89.92492231730887	8.740747701140126	-32.42067463914273	16.12929626256835	36.94158895150723	45.00000025534048	0	0	-4.762788363347794	-1.186162566070092	-19.46381835380902	0.06859871284671858	45.00000025534048	0	0
128.275	2.579027551456336	-0.87599285529055	-3159.257769661819	0	0.9399999999999999	0	-11.59612728905277	38.57213920347453	-47.96454489237784	-43.28602115964516	-0.755483589323742	1.755810431747278	0	0	14.79687251099412	33.35554979743547	76.10715370650908	39.34919547750181	0.6867730190932688	24.30844005172243	0	0	1.832771427481367	14.28871075917456	-89.92659702355988	11.34371928928956	-34.61260902693761	19.72939368133255	39.17823891838481	45.00000025534048	0	0	-6.410530789722181	-0.9128906493903033	-19.73006858346982	0.07796448839938973	45.00000025534048	0	0
128.3	2.673749557108848	-0.9314240344309096	-3160.294963437514	0	0.9399999999999999	0	-13.40214561152033	39.21877120095013	-45.73395529655981	-43.18192803798897	-0.7536668216221625	2.589145289933149	0	0	14.01128132197059	33.56261687099526	76.8193219026265	32.86243915800711	0.573557763543537	18.34834637220759	0	0	2.001026298725065	14.76486949633145	-89.92736273714785	14.54377354364241	-36.13300001737021	24.18085111298839	40.58047050400327	45.00000025534048	0	0	-7.90858162503323	-0.5777426036756527	-20.23114496033048	0.09841946598285567	45.00000025534048	0	0
128.325	2.719916454697508	-1.029105816648327	-3161.24179859248	0	0.9399999999999999	0	-15.3367202068457	39.83700422772753	-43.31129822298787	-43.17684217815766	-0.7535780566228112	3.335649224394459	0	0	13.76384393097908	33.15517136700717	77.24707387510328	26.04473028354273	0.454566296241697	11.13681829748074	0	0	2.226613200979728	15.07191447995531	-89.92977391497652	17.58843501542706	-37.11373737293582	28.88890438307173	41.33969247268619	45.00000025534048	0	0	-9.482263091093335	-0.136828430365858	-20.63337589502742	0.1392850276777221	45.00000025534048	0	0
128.35	3.280371995041542	-0.648290529351268	-3162.095817408665	0	0.9399999999999999	0	-18.5684353187068	41.36379885381552	-40.17848357591824	-43.87595197185036	-0.7657798243556871	4.306882908523432	0	0	12.4141060700128	31.9331394128652	78.07699248082449	18.99384119200379	0.3315050664013906	1.223507195893101	0	0	1.705975235588364	15.97115091410577	-89.92974863566813	20.43757346330669	-37.31820792112465	33.11010278111134	41.4599240525957	45.00000025534048	0	0	-10.78079674724625	0.1677762233219994	-20.87670810180076	0.2305169698558157	45.00000025534048	0	0
128.375	3.703767551569999	-0.3359789863696532	-3162.807233342869	0	0.9399999999999999	0	-21.08781096502582	42.28611106519774	-38.0941011436463	-43.97475817209324	-0.7675043178713102	5.144759118504186	0	0	11.04252634929497	30.7499533032375	79.46350659129638	12.49507676534072	0.2180802298446384	-8.368230099945773	0	0	1.307564554136525	16.54943776013718	-89.93017471439939	22.2561458824559	-37.07513658087343	36.26572684642073	41.11400419265247	45.00000025534048	0	0	-12.23681586610575	0.5356464494133016	-20.93629819156399	0.4938848584094817	45.00000025534048	0	0
128.4	3.968284989132515	-0.007998637257281959	-3163.352467504335	0	0.9399999999999999	0	-22.94443904646198	42.81955827019262	-36.79750563964274	-43.61949258931951	-0.7613037637328921	5.94101991039211	0	0	10.9055065385922	30.28990580008446	78.23299410245991	8.526448461641824	0.1488145991572553	-18.63487003554411	0	0	0.8604620373747405	16.84184877281115	-89.93090245377657	22.9225431020868	-36.47029880733214	38.01391845338748	40.27945213286453	45.00000025534048	0	0	-13.86686002835859	0.886136126692623	-21.05725490746919	1.074203976425609	45.00000025534048	0	0
128.425	3.941029657160318	-0.01033453942031292	-3163.974501869896	0	0.9399999999999999	0	-24.04592025012989	42.94632954263252	-35.98396490925972	-42.84519330497939	-0.7477896918253213	6.942818455118618	0	0	11.82783377297915	31.43013271454656	79.09877374387764	6.711358217342986	0.1171352981734123	-26.73702492847987	0	0	0.6961004892711699	16.73019874701915	-89.92958442057899	22.5250597179251	-35.60426325869125	38.57964639482415	39.00498435596663	45.00000025534048	0	0	-15.48637541459465	1.216725029368275	-21.46337276035675	1.529840814831409	45.00000025534048	0	0
128.45	3.95146746428346	-0.2034416373871434	-3164.734456331779	0	0.9399999999999999	0	-24.30374944884786	42.82394853006726	-36.11774461632253	-41.22947539999042	-0.7195900945998389	7.898893745074128	0	0	11.73053051775283	31.57758400006452	77.64968746655745	6.470017567100494	0.1129231092077768	-30.98151753247708	0	0	0.662743392941705	16.77901144885674	-89.92313853383757	21.47571608899599	-34.57643046365789	38.20544398390557	37.47409826393192	45.00000025534048	0	0	-16.55656644247261	1.570586312525093	-22.23216651795919	1.4321825240632	45.00000025534048	0	0
128.475	3.896475738240005	0.03876684540056567	-3165.566694871392	0	0.9399999999999999	0	-23.8994115341057	41.59917160394053	-37.91664286220075	-38.00377499147513	-0.663291001788321	8.27086583699985	0	0	12.10814219243739	29.80198219887238	75.22887534148335	6.157931910905508	0.1074761869589272	-34.65072266213389	0	0	0.2204569439155241	16.66893028351824	-89.9140018952685	19.80713148448326	-33.37024312340456	37.01827186594027	35.75229596848641	45.00000025534048	0	0	-17.13777124844854	2.018166959384293	-23.39249767238116	0.8854074033559154	45.00000025534048	0	0
128.5	3.64902779346018	1.409621644983272	-3166.038386626491	0	0.9399999999999999	0	-23.94574691064915	39.86911625760727	-40.61141426766299	-34.13390545873757	-0.5957490368194359	8.88694974940676	0	0	9.755008306785111	27.38431888644152	75.78420661302545	5.461733925140253	0.09532523986157092	-33.67123596055475	0	0	-1.361706936939255	15.60701627670047	-89.90917526335556	16.89522490796867	-32.07210164650494	34.64880682881662	33.81379681431014	45.00000025534048	0	0	-17.98057006899286	2.31745930039289	-24.65182815468705	0.4051390742220202	45.00000025534048	0	0
128.525	1.796617823520553	0.8003056576727966	-3166.283156103453	0	0.9399999999999999	0	-21.1908003081841	36.47278231914059	-44.13682740731662	-28.96056047762042	-0.5054571335574179	9.52720955132447	0	0	9.752351246942885	26.8611075408147	76.32465906653833	5.730898925404746	0.1000230553473177	-31.92195868694226	0	0	-0.7076377655557236	13.42540730783107	-89.91202656888916	13.51893481847875	-30.60878054085053	31.61587213827869	31.35222778112146	45.00000025534048	0	0	-18.89601391891902	2.673249264707465	-26.13912100526518	0.1927026109859895	45.00000025534048	0	0
128.55	-0.3686909178793012	-4.14688346584746	-3165.805659548736	0	0.9399999999999999	0	-13.46730466499694	32.8481441912803	-49.27986513919321	-21.49884995746647	-0.3752257171500327	9.583069568856216	0	0	14.90370226026477	25.96415478783521	75.40964107762917	4.779480570258391	0.0834176724861051	-32.0653953566196	0	0	4.165748152478383	12.33749214911692	-89.92458702724868	10.09222662525056	-28.72175869995451	28.00875191298856	28.38684396711677	45.00000025534048	0	0	-19.53923429154574	2.706335703891586	-27.10339160599968	0.112618153476985	45.00000025534048	0	0
128.575	0.1578809786397167	-2.137298140917176	-3165.634789116247	0	0.9399999999999999	0	-13.72071032070432	26.21105558663601	-55.97021456154064	-9.59464267104477	-0.1674581051620744	2.739334500043576	0	0	11.97863486043948	25.52470571320866	79.37730558732511	7.67405496648168	0.1339375261441284	-27.94028301863607	0	0	1.190846923056636	12.16957942891994	-89.92788195794672	7.494005878514473	-25.78792172220111	25.57712990400095	24.78461211891102	45.00000025534048	0	0	-19.38639936061422	2.209388102536675	-28.1211677330808	0.07860714417723318	45.00000025534048	0	0
